<?xml version="1.0" encoding="UTF-8"?>
<svg id="Layer_2" data-name="Layer 2" xmlns="http://www.w3.org/2000/svg" viewBox="0 0 20.87 20.87">
  <defs>
    <style>
      .cls-1 {
        fill: none;
        stroke: #000;
        stroke-miterlimit: 10;
        stroke-width: 1.5px;
      }
    </style>
  </defs>
  <g id="Layer_1-2" data-name="Layer 1">
    <g>
      <path d="M12.41,6.5c0,.12-.02,.24-.05,.35-.03,.11-.09,.21-.17,.3-.03,.05-.09,.11-.17,.19-.08,.08-.19,.18-.32,.32-.34,.28-.65,.58-.95,.89-.3,.31-.59,.64-.87,.98-.1,.11-.19,.23-.29,.35-.1,.12-.17,.24-.23,.37-.06,.13-.08,.26-.08,.41s.06,.29,.17,.44c.2,.28,.41,.55,.64,.8,.22,.26,.46,.51,.72,.76,.15,.16,.31,.32,.46,.47,.16,.15,.31,.3,.45,.46,.19,.19,.31,.39,.35,.61s.02,.4-.06,.56c-.08,.16-.21,.28-.39,.35-.18,.07-.39,.06-.64-.04-.13-.06-.25-.13-.37-.22s-.24-.2-.35-.31c-.11-.12-.22-.23-.32-.35-.1-.12-.2-.23-.29-.34-1.5-1.66-2.26-2.75-2.26-3.29,0-.41,.29-1,.88-1.78,.22-.28,.47-.57,.74-.88,.27-.31,.58-.61,.91-.92,.21-.21,.42-.41,.64-.62,.22-.2,.46-.38,.73-.52,.11-.06,.23-.08,.37-.08,.13,0,.25,.04,.37,.1,.11,.06,.2,.15,.28,.26s.11,.24,.11,.4Z"/>
      <circle class="cls-1" cx="10.43" cy="10.43" r="9.68"/>
    </g>
  </g>
</svg>