<?xml version="1.0" encoding="UTF-8"?>
<svg id="Layer_2" data-name="Layer 2" xmlns="http://www.w3.org/2000/svg" viewBox="0 0 32.13 39.9">
  <defs>
    <style>
      .cls-1 {
        stroke-miterlimit: 10;
      }

      .cls-1, .cls-2 {
        fill: none;
        stroke: #000;
        stroke-linecap: round;
        stroke-width: 2px;
      }

      .cls-2 {
        stroke-linejoin: round;
      }
    </style>
  </defs>
  <g id="field">
    <g>
      <path d="M26.21,37.77c-.01,.08-.09,.14-.18,.12l-23.9-3.58c-.08-.01-.14-.09-.13-.17L6.79,2.13c.01-.08,.09-.14,.17-.13l16.34,2.44-.99,6.46c-.14,.93,.46,1.79,1.4,1.96l6.09,.91-3.59,24Zm5.81-26.84c-.08-.23-.22-.43-.36-.67l-1.06-1.83-1.83-3.18-.6-1.02s-.02-.02-.01-.04c0,0-.27-.48-.29-.5-.31-.42-.78-.71-1.35-.8L7.26,.02c-1.18-.18-2.27,.63-2.44,1.81L.02,33.86c-.18,1.18,.63,2.27,1.81,2.44l23.9,3.58c1.18,.18,2.28-.63,2.45-1.81l3.87-25.88c.02-.12,.04-.25,.06-.37,.03-.22-.01-.43-.04-.66-.01-.08-.03-.15-.05-.22Z"/>
      <g>
        <line class="cls-1" x1="14" y1="27.93" x2="18.74" y2="16.74"/>
        <polyline class="cls-2" points="11.14 17.99 6.75 21.26 10 25.66"/>
        <polyline class="cls-2" points="22.93 19.75 26.18 24.16 21.79 27.43"/>
      </g>
    </g>
  </g>
</svg>