<?xml version="1.0" encoding="UTF-8"?>
<svg id="Layer_2" data-name="Layer 2" xmlns="http://www.w3.org/2000/svg" viewBox="0 0 40.66 28.4">
  <defs>
    <style>
      .cls-1 {
        stroke-linecap: round;
      }

      .cls-1, .cls-2 {
        fill: none;
        stroke: #000;
        stroke-miterlimit: 10;
        stroke-width: 2px;
      }
    </style>
  </defs>
  <g id="field">
    <g>
      <path d="M10.86,6.59c-.11-.11-.26-.15-.41-.11s-.26,.16-.3,.31l-.28,1.1-1.09-.31c-.15-.04-.31,0-.41,.11s-.15,.27-.11,.41l.31,1.09-1.1,.28c-.15,.04-.26,.15-.31,.3s0,.31,.11,.41l.82,.79-.82,.79c-.11,.11-.15,.26-.11,.41s.16,.26,.31,.3l1.1,.28-.31,1.09c-.04,.15,0,.31,.11,.41s.27,.15,.41,.11l1.09-.31,.28,1.1c.04,.15,.15,.26,.3,.31,.15,.04,.31,0,.41-.11l.79-.82,.79,.82c.11,.11,.26,.15,.41,.11s.26-.16,.3-.31l.28-1.1,1.09,.31c.15,.04,.31,0,.41-.11s.15-.27,.11-.41l-.31-1.09,1.1-.28c.15-.04,.26-.15,.31-.3,.04-.15,0-.31-.11-.41l-.82-.79,.82-.79c.11-.11,.15-.26,.11-.41s-.16-.26-.31-.3l-1.1-.28,.31-1.09c.04-.15,0-.31-.11-.41s-.27-.15-.41-.11l-1.09,.31-.28-1.1c-.04-.15-.15-.26-.3-.31s-.31,0-.41,.11l-.79,.82-.79-.82Z"/>
      <rect class="cls-2" x="1" y="1" width="38.66" height="26.4" rx="5.84" ry="5.84"/>
      <line class="cls-1" x1="21.73" y1="15.49" x2="34.48" y2="15.49"/>
      <line class="cls-1" x1="23.9" y1="9.89" x2="34.48" y2="9.89"/>
      <line class="cls-1" x1="11.66" y1="21.1" x2="34.48" y2="21.1"/>
    </g>
  </g>
</svg>